<svg class="h-80" viewBox="0 0 680 688" fill="none" xmlns="http://www.w3.org/2000/svg">
    <g filter="url(#filter0_d_326_6171)">
        <rect x="13" y="8.59857" width="655" height="667.148" rx="8" fill="#ECECEF" />
        <rect x="14.5" y="10.0986" width="652" height="664.148" rx="6.5" stroke="#66667A" stroke-width="3" />
    </g>
    <g clip-path="url(#clip0_326_6171)">
        <path
                d="M84.1373 118.774L85.8914 113.046L79.9908 111.465L78.2368 117.193L84.1373 118.774ZM131.342 131.422L133.096 125.695L127.195 124.114L125.441 129.841L131.342 131.422ZM117.31 177.241L111.409 175.66L109.655 181.387L115.555 182.968L117.31 177.241ZM224.474 119.193L230.375 120.774L231.101 118.403L229.894 116.258L224.474 119.193ZM199.595 75.3429L205.015 72.4074L203.792 70.2702L201.349 69.6156L199.595 75.3429ZM82.3833 124.501L94.1844 127.663L97.6925 116.209L85.8914 113.046L82.3833 124.501ZM74.2514 171.901L83.0217 143.264L71.2206 140.102L62.4503 168.738L74.2514 171.901ZM83.0217 143.264L90.0379 120.355L78.2368 117.193L71.2206 140.102L83.0217 143.264ZM90.6763 139.118L78.8752 135.956L75.3671 147.41L87.1682 150.572L90.6763 139.118ZM98.331 134.971C97.8658 136.49 96.7979 137.781 95.3624 138.558C93.9269 139.336 92.2413 139.537 90.6763 139.118L87.1682 150.572C91.863 151.83 96.9199 151.227 101.226 148.894C105.533 146.561 108.737 142.691 110.132 138.134L98.331 134.971ZM94.1844 127.663C95.7494 128.082 97.0654 129.088 97.843 130.459C98.6206 131.829 98.7962 133.453 98.331 134.971L110.132 138.134C111.528 133.577 111.001 128.707 108.668 124.595C106.335 120.483 102.387 117.466 97.6925 116.209L94.1844 127.663ZM125.441 129.841L111.409 175.66L123.21 178.822L137.243 133.003L125.441 129.841ZM115.555 182.968L127.357 186.13L130.865 174.675L119.064 171.513L115.555 182.968ZM150.321 173.691L157.337 150.782L145.536 147.62L138.519 170.529L150.321 173.691ZM144.897 128.857L133.096 125.695L129.588 137.149L141.389 140.312L144.897 128.857ZM157.337 150.782C158.732 146.225 158.206 141.355 155.873 137.243C153.54 133.132 149.592 130.115 144.897 128.857L141.389 140.312C142.954 140.731 144.27 141.736 145.048 143.107C145.825 144.478 146.001 146.101 145.536 147.62L157.337 150.782ZM127.357 186.13C132.051 187.388 137.108 186.784 141.415 184.451C145.721 182.119 148.925 178.248 150.321 173.691L138.519 170.529C138.054 172.048 136.986 173.338 135.551 174.116C134.115 174.893 132.43 175.095 130.865 174.675L127.357 186.13ZM174.4 136.762L156.86 194.035L168.661 197.197L186.201 139.924L174.4 136.762ZM176.793 149.798L206.295 157.703L209.803 146.249L180.301 138.343L176.793 149.798ZM169.776 172.707L187.478 177.45L190.986 165.996L173.284 161.253L169.776 172.707ZM83.4989 100.011L95.7773 59.9196L83.9761 56.7575L71.6978 96.8486L83.4989 100.011ZM218.574 117.612L213.312 134.794L225.113 137.956L230.375 120.774L218.574 117.612ZM103.432 55.7733L197.841 81.0702L201.349 69.6156L106.94 44.3187L103.432 55.7733ZM194.176 78.2785L219.055 122.129L229.894 116.258L205.015 72.4074L194.176 78.2785ZM95.7773 59.9196C96.2425 58.4006 97.3103 57.1104 98.7458 56.3329C100.181 55.5553 101.867 55.354 103.432 55.7733L106.94 44.3187C102.245 43.0608 97.1883 43.6646 92.8817 45.9973C88.5752 48.33 85.3717 52.2006 83.9761 56.7575L95.7773 59.9196ZM47.141 177.031L41.8789 194.213L53.68 197.375L58.9422 180.193L47.141 177.031ZM54.3185 216.138L172.33 247.759L175.838 236.304L57.8266 204.683L54.3185 216.138ZM195.294 235.32L200.556 218.138L188.755 214.976L183.493 232.158L195.294 235.32ZM172.33 247.759C177.025 249.017 182.082 248.413 186.388 246.08C190.695 243.748 193.898 239.877 195.294 235.32L183.493 232.158C183.028 233.677 181.96 234.967 180.524 235.745C179.089 236.522 177.403 236.724 175.838 236.304L172.33 247.759ZM41.8789 194.213C40.4833 198.77 41.0098 203.64 43.3427 207.752C45.6756 211.863 49.6237 214.88 54.3185 216.138L57.8266 204.683C56.2616 204.264 54.9456 203.258 54.168 201.888C53.3903 200.517 53.2148 198.894 53.68 197.375L41.8789 194.213Z"
                fill="#00A6D6" />
    </g>
    <g clip-path="url(#clip1_326_6171)">
        <path
                d="M292.679 191.994C240.819 205.263 250.144 226.125 250.144 226.125L256.508 248.583L305.997 235.921L307.89 242.668L238.744 260.359C238.744 260.359 204.54 265.219 218.703 315.688C232.865 366.158 261.328 356.957 261.328 356.957L278.615 352.534L272.042 329.114C272.042 329.114 263.271 301.416 292.706 293.885L341.79 281.327C341.79 281.327 369.488 274.701 362.154 248.566L350.027 205.352C350.027 205.352 346.877 178.128 292.679 191.994ZM269.631 214.088C270.801 213.788 272.021 213.713 273.223 213.868C274.424 214.022 275.584 214.404 276.634 214.99C277.685 215.576 278.607 216.355 279.346 217.283C280.086 218.211 280.629 219.269 280.944 220.397C281.262 221.525 281.346 222.701 281.191 223.857C281.037 225.014 280.647 226.129 280.043 227.138C279.44 228.147 278.636 229.031 277.676 229.738C276.717 230.446 275.621 230.964 274.451 231.262C273.282 231.562 272.061 231.637 270.86 231.482C269.658 231.328 268.499 230.947 267.448 230.361C266.397 229.775 265.476 228.995 264.736 228.067C263.996 227.14 263.453 226.081 263.138 224.953C262.82 223.825 262.737 222.65 262.891 221.493C263.046 220.336 263.436 219.221 264.039 218.212C264.642 217.203 265.446 216.319 266.406 215.612C267.366 214.904 268.462 214.386 269.631 214.088Z"
                fill="#0088AD" />
        <path
                d="M349.836 388.32C401.696 375.051 392.371 354.189 392.371 354.189L386.008 331.732L336.517 344.394L334.624 337.647L403.77 319.956C403.77 319.956 437.974 315.096 423.811 264.626C409.649 214.157 381.186 223.357 381.186 223.357L363.9 227.78L370.471 251.199C370.471 251.199 379.243 278.897 349.808 286.428L300.724 298.986C300.724 298.986 273.026 305.612 280.36 331.749L292.487 374.963C292.487 374.963 295.638 402.186 349.835 388.32M372.883 366.228C371.714 366.528 370.494 366.603 369.292 366.448C368.09 366.293 366.931 365.912 365.88 365.326C364.829 364.74 363.908 363.961 363.168 363.033C362.429 362.105 361.886 361.047 361.57 359.919C361.253 358.791 361.169 357.615 361.323 356.458C361.478 355.302 361.868 354.187 362.471 353.177C363.074 352.168 363.878 351.284 364.838 350.577C365.798 349.869 366.894 349.351 368.064 349.053C369.233 348.753 370.453 348.678 371.655 348.833C372.856 348.987 374.016 349.369 375.067 349.955C376.117 350.541 377.039 351.32 377.778 352.248C378.518 353.176 379.061 354.234 379.376 355.362C379.694 356.49 379.778 357.666 379.623 358.822C379.469 359.979 379.079 361.094 378.476 362.103C377.872 363.112 377.068 363.996 376.108 364.703C375.149 365.411 374.053 365.929 372.883 366.228Z"
                fill="#EAC45F" />
    </g>
    <g clip-path="url(#clip2_326_6171)">
        <path
                d="M473.707 350.94L531.325 370.634C532.764 366.918 535.661 363.872 539.38 362.168C543.099 360.463 547.334 360.239 551.154 361.545C554.975 362.851 558.067 365.579 559.751 369.13C561.435 372.682 561.573 376.764 560.135 380.481L617.753 400.174L612.329 414.186L605.127 411.725L575.293 488.792L533.879 474.637L530.21 520.982L515.806 516.058L519.475 469.714L501.469 463.559L472.592 501.288L458.187 496.365L487.064 458.636L445.651 444.481L475.485 367.414L468.282 364.952L473.707 350.94ZM489.889 372.338L465.48 435.392L566.313 469.856L590.722 406.801L489.889 372.338Z"
                fill="#EAC45F" />
    </g>
    <g clip-path="url(#clip3_326_6171)">
        <path
                d="M515.481 212.104C511.663 213.785 507.744 213.901 503.722 212.45C499.7 211 496.769 208.414 494.927 204.692L448.223 110.015C446.388 106.295 446.178 102.513 447.594 98.6682C449.009 94.8234 451.622 92.0591 455.433 90.3753L484.584 77.5361C484.087 72.8162 484.991 68.4389 487.299 64.4043C489.606 60.3697 492.956 57.3853 497.347 55.4513C501.738 53.5173 506.313 53.0116 511.071 53.9342C515.83 54.8569 519.957 57.0179 523.453 60.4172L552.605 47.578C556.422 45.8967 560.345 45.7823 564.374 47.235C568.403 48.6876 571.331 51.2725 573.159 54.9895L619.863 149.667C621.698 153.387 621.911 157.17 620.502 161.017C619.094 164.864 616.477 167.627 612.653 169.306L515.481 212.104ZM508.809 198.578L605.981 155.781L559.277 61.1034L462.105 103.901L508.809 198.578ZM516.018 178.939L564.605 157.54L557.933 144.015L509.346 165.414L516.018 178.939ZM502.674 151.888L572.083 121.319L565.411 107.793L496.002 138.363L502.674 151.888ZM489.33 124.838L558.739 94.268L552.067 80.7426L482.658 111.312L489.33 124.838ZM508.189 77.43C509.693 76.7677 510.701 75.7393 511.212 74.3449C511.724 72.9505 511.618 71.524 510.892 70.0653C510.167 68.6066 509.077 67.6131 507.623 67.0849C506.168 66.5566 504.689 66.6237 503.185 67.286C501.681 67.9483 500.675 68.9757 500.168 70.368C499.661 71.7604 499.765 73.1879 500.481 74.6507C501.197 76.1135 502.288 77.1092 503.754 77.6379C505.221 78.1666 506.699 78.0973 508.189 77.43Z"
                fill="#EAC45F" />
    </g>
    <g clip-path="url(#clip4_326_6171)">
        <path
                d="M136.922 445.779C154.928 439.625 169.171 431.65 179.65 421.853C190.13 412.057 193.878 403.306 190.895 395.599C187.911 387.893 179.055 383.449 164.327 382.269C149.598 381.089 133.231 383.576 115.225 389.73C97.2191 395.884 82.9764 403.86 72.4968 413.656C62.0172 423.452 58.2691 432.203 61.2525 439.91C64.2359 447.617 73.0919 452.06 87.8205 453.24C102.549 454.42 118.916 451.933 136.922 445.779ZM143.703 463.294C148.624 461.612 154.585 459.012 161.585 455.493C168.584 451.974 175.074 447.939 181.055 443.388C187.035 438.837 191.799 433.938 195.346 428.69C198.892 423.443 199.669 418.251 197.675 413.115L204.456 430.63C206.445 435.768 205.668 440.959 202.126 446.205C198.584 451.451 193.82 456.351 187.835 460.903C181.85 465.456 175.361 469.493 168.368 473.015C161.375 476.537 155.413 479.135 150.483 480.81C145.553 482.484 139.21 484.089 131.453 485.624C123.696 487.159 115.962 487.986 108.249 488.105C100.537 488.224 93.5365 487.345 87.2485 485.47C80.9606 483.594 76.8155 480.084 74.8134 474.94L68.0329 457.425C70.0218 462.563 74.1669 466.073 80.4681 467.954C86.7693 469.836 93.7695 470.714 101.469 470.59C109.168 470.465 116.904 469.64 124.675 468.116C132.447 466.591 138.79 464.984 143.703 463.294ZM157.264 498.325C162.185 496.643 168.146 494.042 175.146 490.523C182.145 487.004 188.635 482.969 194.616 478.418C200.596 473.868 205.36 468.968 208.906 463.721C212.453 458.473 213.23 453.281 211.236 448.145L218.016 465.66C220.005 470.798 219.229 475.99 215.687 481.236C212.145 486.482 207.381 491.381 201.396 495.934C195.411 500.486 188.922 504.523 181.929 508.045C174.936 511.567 168.974 514.166 164.044 515.84C159.114 517.515 152.771 519.119 145.014 520.655C137.257 522.19 129.523 523.017 121.81 523.136C114.098 523.254 107.097 522.376 100.809 520.5C94.5214 518.625 90.3764 515.115 88.3742 509.971L81.5938 492.456C83.5827 497.594 87.7278 501.103 94.029 502.985C100.33 504.866 107.33 505.745 115.03 505.62C122.729 505.496 130.464 504.671 138.236 503.146C146.008 501.622 152.35 500.015 157.264 498.325Z"
                fill="#00A6D6" />
    </g>
    <path
            d="M255.795 626.214C255.535 626.214 255.301 626.123 255.092 625.94C254.91 625.758 254.819 625.524 254.819 625.237V599.848C254.819 599.562 254.91 599.327 255.092 599.145C255.301 598.963 255.535 598.872 255.795 598.872H259.428C259.819 598.872 260.105 598.976 260.287 599.184C260.496 599.393 260.639 599.549 260.717 599.653L267.904 612.894L275.169 599.653C275.221 599.549 275.338 599.393 275.521 599.184C275.729 598.976 276.028 598.872 276.419 598.872H280.052C280.338 598.872 280.572 598.963 280.755 599.145C280.937 599.327 281.028 599.562 281.028 599.848V625.237C281.028 625.524 280.937 625.758 280.755 625.94C280.572 626.123 280.338 626.214 280.052 626.214H276.067C275.807 626.214 275.586 626.123 275.403 625.94C275.221 625.758 275.13 625.524 275.13 625.237V609.457L270.169 618.753C270.039 618.988 269.87 619.196 269.662 619.378C269.453 619.561 269.18 619.652 268.841 619.652H267.006C266.667 619.652 266.394 619.561 266.185 619.378C265.977 619.196 265.808 618.988 265.678 618.753L260.717 609.457V625.237C260.717 625.524 260.626 625.758 260.443 625.94C260.261 626.123 260.04 626.214 259.779 626.214H255.795ZM292.369 626.604C290.989 626.604 289.752 626.344 288.658 625.823C287.564 625.276 286.692 624.547 286.041 623.636C285.39 622.724 285.064 621.709 285.064 620.589C285.064 618.74 285.807 617.282 287.291 616.214C288.801 615.147 290.78 614.418 293.228 614.027L298.345 613.285V612.582C298.345 611.566 298.11 610.785 297.642 610.238C297.173 609.691 296.353 609.418 295.181 609.418C294.322 609.418 293.632 609.587 293.111 609.926C292.59 610.264 292.186 610.707 291.9 611.254C291.692 611.592 291.392 611.762 291.002 611.762H287.291C287.004 611.762 286.783 611.683 286.627 611.527C286.471 611.345 286.405 611.137 286.432 610.902C286.432 610.46 286.601 609.939 286.939 609.34C287.278 608.741 287.799 608.155 288.502 607.582C289.205 606.983 290.103 606.488 291.197 606.098C292.291 605.707 293.632 605.512 295.22 605.512C296.861 605.512 298.267 605.707 299.438 606.098C300.61 606.488 301.548 607.035 302.251 607.738C302.954 608.441 303.475 609.262 303.813 610.199C304.152 611.111 304.321 612.1 304.321 613.168V625.237C304.321 625.524 304.23 625.758 304.048 625.94C303.865 626.123 303.631 626.214 303.344 626.214H299.517C299.256 626.214 299.035 626.123 298.853 625.94C298.67 625.758 298.579 625.524 298.579 625.237V623.792C298.241 624.287 297.785 624.756 297.212 625.198C296.639 625.615 295.949 625.953 295.142 626.214C294.361 626.474 293.436 626.604 292.369 626.604ZM293.931 622.542C294.79 622.542 295.559 622.36 296.236 621.995C296.913 621.631 297.446 621.071 297.837 620.316C298.228 619.561 298.423 618.61 298.423 617.464V616.8L294.79 617.386C293.384 617.621 292.356 617.972 291.705 618.441C291.054 618.91 290.728 619.482 290.728 620.159C290.728 620.654 290.871 621.084 291.158 621.448C291.47 621.813 291.874 622.086 292.369 622.269C292.863 622.451 293.384 622.542 293.931 622.542ZM318.663 626.214C317.048 626.214 315.668 625.953 314.522 625.433C313.377 624.886 312.504 624.052 311.905 622.933C311.332 621.813 311.046 620.407 311.046 618.714V610.512H307.999C307.713 610.512 307.479 610.42 307.296 610.238C307.114 610.056 307.023 609.822 307.023 609.535V606.879C307.023 606.593 307.114 606.358 307.296 606.176C307.479 605.994 307.713 605.903 307.999 605.903H311.046V599.458C311.046 599.171 311.137 598.937 311.319 598.755C311.528 598.572 311.762 598.481 312.023 598.481H315.85C316.137 598.481 316.371 598.572 316.553 598.755C316.736 598.937 316.827 599.171 316.827 599.458V605.903H321.709C321.97 605.903 322.191 605.994 322.373 606.176C322.556 606.358 322.647 606.593 322.647 606.879V609.535C322.647 609.822 322.556 610.056 322.373 610.238C322.191 610.42 321.97 610.512 321.709 610.512H316.827V618.246C316.827 619.235 316.996 620.016 317.335 620.589C317.699 621.136 318.324 621.409 319.21 621.409H322.061C322.321 621.409 322.543 621.501 322.725 621.683C322.907 621.865 322.998 622.086 322.998 622.347V625.237C322.998 625.524 322.907 625.758 322.725 625.94C322.543 626.123 322.321 626.214 322.061 626.214H318.663ZM335.468 626.604C332.473 626.604 330.091 625.771 328.32 624.105C326.575 622.438 325.651 620.016 325.547 616.839C325.547 616.631 325.547 616.358 325.547 616.019C325.547 615.655 325.547 615.368 325.547 615.16C325.651 613.155 326.107 611.436 326.914 610.004C327.721 608.546 328.854 607.439 330.312 606.684C331.77 605.903 333.476 605.512 335.429 605.512C337.616 605.512 339.439 605.968 340.897 606.879C342.382 607.764 343.488 608.988 344.217 610.551C344.973 612.087 345.35 613.858 345.35 615.863V616.761C345.35 617.022 345.246 617.243 345.038 617.425C344.855 617.608 344.634 617.699 344.374 617.699H331.601C331.601 617.725 331.601 617.777 331.601 617.855C331.601 617.907 331.601 617.959 331.601 618.011C331.627 618.844 331.783 619.613 332.07 620.316C332.382 620.993 332.812 621.54 333.359 621.956C333.932 622.373 334.609 622.581 335.39 622.581C336.041 622.581 336.575 622.49 336.991 622.308C337.408 622.125 337.746 621.904 338.007 621.644C338.293 621.383 338.502 621.162 338.632 620.98C338.866 620.719 339.048 620.563 339.179 620.511C339.335 620.433 339.569 620.394 339.882 620.394H343.944C344.204 620.394 344.413 620.472 344.569 620.628C344.751 620.758 344.829 620.954 344.803 621.214C344.777 621.631 344.556 622.152 344.139 622.776C343.749 623.375 343.163 623.974 342.382 624.573C341.6 625.146 340.624 625.628 339.452 626.018C338.306 626.409 336.978 626.604 335.468 626.604ZM331.601 614.144H339.257V614.066C339.257 613.129 339.101 612.321 338.788 611.644C338.502 610.941 338.072 610.394 337.499 610.004C336.926 609.613 336.236 609.418 335.429 609.418C334.622 609.418 333.932 609.613 333.359 610.004C332.786 610.394 332.343 610.941 332.031 611.644C331.744 612.321 331.601 613.129 331.601 614.066V614.144ZM350.192 626.214C349.932 626.214 349.71 626.123 349.528 625.94C349.346 625.758 349.255 625.524 349.255 625.237V606.879C349.255 606.619 349.346 606.397 349.528 606.215C349.71 606.007 349.932 605.903 350.192 605.903H354.02C354.28 605.903 354.502 606.007 354.684 606.215C354.892 606.397 354.996 606.619 354.996 606.879V608.441C355.647 607.634 356.442 607.009 357.379 606.567C358.343 606.124 359.449 605.903 360.699 605.903H362.379C362.639 605.903 362.861 605.994 363.043 606.176C363.225 606.358 363.316 606.593 363.316 606.879V610.238C363.316 610.525 363.225 610.759 363.043 610.941C362.861 611.124 362.639 611.215 362.379 611.215H358.942C357.796 611.215 356.897 611.54 356.246 612.191C355.595 612.816 355.27 613.715 355.27 614.886V625.237C355.27 625.524 355.179 625.758 354.996 625.94C354.814 626.123 354.58 626.214 354.293 626.214H350.192ZM367.166 626.214C366.906 626.214 366.685 626.123 366.502 625.94C366.32 625.758 366.229 625.524 366.229 625.237V606.879C366.229 606.593 366.32 606.358 366.502 606.176C366.685 605.994 366.906 605.903 367.166 605.903H371.072C371.359 605.903 371.593 605.994 371.775 606.176C371.958 606.358 372.049 606.593 372.049 606.879V625.237C372.049 625.524 371.958 625.758 371.775 625.94C371.593 626.123 371.359 626.214 371.072 626.214H367.166ZM367.049 602.778C366.789 602.778 366.567 602.687 366.385 602.504C366.203 602.322 366.112 602.088 366.112 601.801V598.676C366.112 598.39 366.203 598.156 366.385 597.973C366.567 597.765 366.789 597.661 367.049 597.661H371.151C371.437 597.661 371.671 597.765 371.854 597.973C372.062 598.156 372.166 598.39 372.166 598.676V601.801C372.166 602.088 372.062 602.322 371.854 602.504C371.671 602.687 371.437 602.778 371.151 602.778H367.049ZM382.924 626.604C381.544 626.604 380.307 626.344 379.213 625.823C378.119 625.276 377.247 624.547 376.596 623.636C375.945 622.724 375.62 621.709 375.62 620.589C375.62 618.74 376.362 617.282 377.846 616.214C379.356 615.147 381.335 614.418 383.783 614.027L388.9 613.285V612.582C388.9 611.566 388.666 610.785 388.197 610.238C387.728 609.691 386.908 609.418 385.736 609.418C384.877 609.418 384.187 609.587 383.666 609.926C383.145 610.264 382.741 610.707 382.455 611.254C382.247 611.592 381.947 611.762 381.557 611.762H377.846C377.56 611.762 377.338 611.683 377.182 611.527C377.026 611.345 376.961 611.137 376.987 610.902C376.987 610.46 377.156 609.939 377.494 609.34C377.833 608.741 378.354 608.155 379.057 607.582C379.76 606.983 380.658 606.488 381.752 606.098C382.846 605.707 384.187 605.512 385.775 605.512C387.416 605.512 388.822 605.707 389.994 606.098C391.165 606.488 392.103 607.035 392.806 607.738C393.509 608.441 394.03 609.262 394.368 610.199C394.707 611.111 394.876 612.1 394.876 613.168V625.237C394.876 625.524 394.785 625.758 394.603 625.94C394.42 626.123 394.186 626.214 393.9 626.214H390.072C389.811 626.214 389.59 626.123 389.408 625.94C389.225 625.758 389.134 625.524 389.134 625.237V623.792C388.796 624.287 388.34 624.756 387.767 625.198C387.194 625.615 386.504 625.953 385.697 626.214C384.916 626.474 383.991 626.604 382.924 626.604ZM384.486 622.542C385.345 622.542 386.114 622.36 386.791 621.995C387.468 621.631 388.002 621.071 388.392 620.316C388.783 619.561 388.978 618.61 388.978 617.464V616.8L385.345 617.386C383.939 617.621 382.911 617.972 382.26 618.441C381.609 618.91 381.283 619.482 381.283 620.159C381.283 620.654 381.426 621.084 381.713 621.448C382.025 621.813 382.429 622.086 382.924 622.269C383.419 622.451 383.939 622.542 384.486 622.542ZM400.582 626.214C400.295 626.214 400.061 626.123 399.879 625.94C399.697 625.758 399.605 625.524 399.605 625.237V599.458C399.605 599.171 399.697 598.937 399.879 598.755C400.061 598.572 400.295 598.481 400.582 598.481H404.488C404.748 598.481 404.97 598.572 405.152 598.755C405.334 598.937 405.425 599.171 405.425 599.458V625.237C405.425 625.524 405.334 625.758 405.152 625.94C404.97 626.123 404.748 626.214 404.488 626.214H400.582ZM418.369 626.604C416.755 626.604 415.362 626.422 414.19 626.058C413.044 625.667 412.107 625.198 411.378 624.651C410.675 624.105 410.141 623.558 409.776 623.011C409.438 622.438 409.255 621.956 409.229 621.566C409.203 621.279 409.295 621.045 409.503 620.863C409.711 620.68 409.919 620.589 410.128 620.589H413.917C413.995 620.589 414.073 620.602 414.151 620.628C414.229 620.654 414.307 620.719 414.385 620.823C414.724 621.058 415.075 621.331 415.44 621.644C415.805 621.93 416.221 622.178 416.69 622.386C417.185 622.594 417.797 622.698 418.526 622.698C419.385 622.698 420.114 622.529 420.713 622.191C421.312 621.826 421.611 621.318 421.611 620.667C421.611 620.199 421.468 619.808 421.182 619.495C420.921 619.183 420.414 618.897 419.658 618.636C418.903 618.376 417.784 618.089 416.299 617.777C414.893 617.464 413.695 617.048 412.706 616.527C411.716 616.006 410.974 615.355 410.479 614.574C409.985 613.767 409.737 612.803 409.737 611.683C409.737 610.668 410.05 609.691 410.675 608.754C411.326 607.816 412.276 607.048 413.526 606.449C414.776 605.824 416.338 605.512 418.213 605.512C419.645 605.512 420.895 605.694 421.963 606.059C423.057 606.397 423.968 606.84 424.697 607.387C425.426 607.908 425.973 608.454 426.338 609.027C426.728 609.574 426.937 610.056 426.963 610.473C426.989 610.733 426.911 610.954 426.728 611.137C426.546 611.319 426.338 611.41 426.103 611.41H422.627C422.497 611.41 422.38 611.397 422.275 611.371C422.171 611.319 422.08 611.254 422.002 611.176C421.69 610.967 421.364 610.733 421.026 610.473C420.713 610.186 420.335 609.939 419.893 609.73C419.45 609.522 418.877 609.418 418.174 609.418C417.315 609.418 416.651 609.613 416.182 610.004C415.739 610.368 415.518 610.837 415.518 611.41C415.518 611.775 415.635 612.113 415.87 612.426C416.104 612.738 416.586 613.024 417.315 613.285C418.044 613.545 419.151 613.819 420.635 614.105C422.406 614.418 423.812 614.886 424.853 615.511C425.895 616.136 426.637 616.865 427.08 617.699C427.549 618.506 427.783 619.378 427.783 620.316C427.783 621.54 427.418 622.633 426.689 623.597C425.96 624.534 424.892 625.276 423.486 625.823C422.106 626.344 420.401 626.604 418.369 626.604Z"
            fill="black" />
    <defs>
        <filter id="filter0_d_326_6171" x="0.6" y="0.198572" width="679.8" height="691.948"
                filterUnits="userSpaceOnUse" color-interpolation-filters="sRGB">
            <feFlood flood-opacity="0" result="BackgroundImageFix" />
            <feColorMatrix in="SourceAlpha" type="matrix" values="0 0 0 0 0 0 0 0 0 0 0 0 0 0 0 0 0 0 127 0"
                           result="hardAlpha" />
            <feOffset dy="4" />
            <feGaussianBlur stdDeviation="6.2" />
            <feComposite in2="hardAlpha" operator="out" />
            <feColorMatrix type="matrix" values="0 0 0 0 0 0 0 0 0 0 0 0 0 0 0 0 0 0 0.25 0" />
            <feBlend mode="normal" in2="BackgroundImageFix"  />
            <feBlend mode="normal" in="SourceGraphic" result="shape" />
        </filter>
        <clipPath id="clip0_326_6171">
            <rect width="183.262" height="179.697" fill="white"
                  transform="matrix(0.965926 0.258819 -0.292836 0.956163 77.437 36.4135)" />
        </clipPath>
        <clipPath id="clip1_326_6171">
            <rect width="211.42" height="204.334" fill="white"
                  transform="matrix(0.968794 -0.247867 0.270183 0.962809 191.12 217.919)" />
        </clipPath>
        <clipPath id="clip2_326_6171">
            <rect width="182.674" height="180.306" fill="white"
                  transform="matrix(0.946255 0.323422 -0.361009 0.932562 467.438 324.998)" />
        </clipPath>
        <clipPath id="clip3_326_6171">
            <rect width="182.022" height="180.978" fill="white"
                  transform="matrix(0.915171 -0.403066 0.442397 0.896819 410.72 85.3721)" />
        </clipPath>
        <clipPath id="clip4_326_6171">
            <rect width="182.674" height="180.306" fill="white"
                  transform="matrix(0.946255 -0.323422 0.361009 0.932562 20.6602 398.252)" />
        </clipPath>
    </defs>
</svg>